<mxfile host="app.diagrams.net" modified="2024-04-03T09:01:45.880Z" agent="Mozilla/5.0 (Windows NT 10.0; Win64; x64) AppleWebKit/537.36 (KHTML, like Gecko) Chrome/123.0.0.0 Safari/537.36" etag="YLRXUSFy0FKfyriTxuRC" version="24.2.1" type="device">
  <diagram id="C5RBs43oDa-KdzZeNtuy" name="Page-1">
    <mxGraphModel dx="2491" dy="1516" grid="1" gridSize="10" guides="1" tooltips="1" connect="1" arrows="1" fold="1" page="1" pageScale="1" pageWidth="827" pageHeight="1169" math="0" shadow="0">
      <root>
        <mxCell id="WIyWlLk6GJQsqaUBKTNV-0" />
        <mxCell id="WIyWlLk6GJQsqaUBKTNV-1" parent="WIyWlLk6GJQsqaUBKTNV-0" />
        <mxCell id="Z9JFO_q1IMEJjFP0utiJ-38" value="USD" style="swimlane;fontStyle=1;align=center;verticalAlign=top;childLayout=stackLayout;horizontal=1;startSize=26;horizontalStack=0;resizeParent=1;resizeParentMax=0;resizeLast=0;collapsible=1;marginBottom=0;whiteSpace=wrap;html=1;" parent="WIyWlLk6GJQsqaUBKTNV-1" vertex="1">
          <mxGeometry x="-345" y="630" width="270" height="150" as="geometry" />
        </mxCell>
        <mxCell id="Z9JFO_q1IMEJjFP0utiJ-39" value="+ Dollars: MoneyPart" style="text;strokeColor=none;fillColor=none;align=left;verticalAlign=top;spacingLeft=4;spacingRight=4;overflow=hidden;rotatable=0;points=[[0,0.5],[1,0.5]];portConstraint=eastwest;whiteSpace=wrap;html=1;" parent="Z9JFO_q1IMEJjFP0utiJ-38" vertex="1">
          <mxGeometry y="26" width="270" height="26" as="geometry" />
        </mxCell>
        <mxCell id="Z9JFO_q1IMEJjFP0utiJ-44" value="+ Cents: MoneyPart" style="text;strokeColor=none;fillColor=none;align=left;verticalAlign=top;spacingLeft=4;spacingRight=4;overflow=hidden;rotatable=0;points=[[0,0.5],[1,0.5]];portConstraint=eastwest;whiteSpace=wrap;html=1;" parent="Z9JFO_q1IMEJjFP0utiJ-38" vertex="1">
          <mxGeometry y="52" width="270" height="26" as="geometry" />
        </mxCell>
        <mxCell id="Z9JFO_q1IMEJjFP0utiJ-40" value="" style="line;strokeWidth=1;fillColor=none;align=left;verticalAlign=middle;spacingTop=-1;spacingLeft=3;spacingRight=3;rotatable=0;labelPosition=right;points=[];portConstraint=eastwest;strokeColor=inherit;" parent="Z9JFO_q1IMEJjFP0utiJ-38" vertex="1">
          <mxGeometry y="78" width="270" height="8" as="geometry" />
        </mxCell>
        <mxCell id="Z9JFO_q1IMEJjFP0utiJ-46" value="+ Print(): string" style="text;strokeColor=none;fillColor=none;align=left;verticalAlign=top;spacingLeft=4;spacingRight=4;overflow=hidden;rotatable=0;points=[[0,0.5],[1,0.5]];portConstraint=eastwest;whiteSpace=wrap;html=1;" parent="Z9JFO_q1IMEJjFP0utiJ-38" vertex="1">
          <mxGeometry y="86" width="270" height="26" as="geometry" />
        </mxCell>
        <mxCell id="v1eoQkwsqzwslgcR9GQ5-5" value="+ &amp;lt;&amp;lt;constructor&amp;gt;&amp;gt; USD(doalrs: int, cents: int)" style="text;strokeColor=none;fillColor=none;align=left;verticalAlign=top;spacingLeft=4;spacingRight=4;overflow=hidden;rotatable=0;points=[[0,0.5],[1,0.5]];portConstraint=eastwest;whiteSpace=wrap;html=1;" vertex="1" parent="Z9JFO_q1IMEJjFP0utiJ-38">
          <mxGeometry y="112" width="270" height="38" as="geometry" />
        </mxCell>
        <mxCell id="v1eoQkwsqzwslgcR9GQ5-1" value="MoneyPart" style="swimlane;fontStyle=1;align=center;verticalAlign=top;childLayout=stackLayout;horizontal=1;startSize=26;horizontalStack=0;resizeParent=1;resizeParentMax=0;resizeLast=0;collapsible=1;marginBottom=0;whiteSpace=wrap;html=1;" vertex="1" parent="WIyWlLk6GJQsqaUBKTNV-1">
          <mxGeometry x="-330" y="495" width="240" height="90" as="geometry" />
        </mxCell>
        <mxCell id="v1eoQkwsqzwslgcR9GQ5-2" value="+ Amount: int" style="text;strokeColor=none;fillColor=none;align=left;verticalAlign=top;spacingLeft=4;spacingRight=4;overflow=hidden;rotatable=0;points=[[0,0.5],[1,0.5]];portConstraint=eastwest;whiteSpace=wrap;html=1;" vertex="1" parent="v1eoQkwsqzwslgcR9GQ5-1">
          <mxGeometry y="26" width="240" height="24" as="geometry" />
        </mxCell>
        <mxCell id="v1eoQkwsqzwslgcR9GQ5-3" value="" style="line;strokeWidth=1;fillColor=none;align=left;verticalAlign=middle;spacingTop=-1;spacingLeft=3;spacingRight=3;rotatable=0;labelPosition=right;points=[];portConstraint=eastwest;strokeColor=inherit;" vertex="1" parent="v1eoQkwsqzwslgcR9GQ5-1">
          <mxGeometry y="50" width="240" height="8" as="geometry" />
        </mxCell>
        <mxCell id="v1eoQkwsqzwslgcR9GQ5-6" value="+ &amp;lt;&amp;lt;constructor&amp;gt;&amp;gt; MoneyPart(amount: int)" style="text;strokeColor=none;fillColor=none;align=left;verticalAlign=top;spacingLeft=4;spacingRight=4;overflow=hidden;rotatable=0;points=[[0,0.5],[1,0.5]];portConstraint=eastwest;whiteSpace=wrap;html=1;" vertex="1" parent="v1eoQkwsqzwslgcR9GQ5-1">
          <mxGeometry y="58" width="240" height="32" as="geometry" />
        </mxCell>
        <mxCell id="v1eoQkwsqzwslgcR9GQ5-9" value="Product" style="swimlane;fontStyle=1;align=center;verticalAlign=top;childLayout=stackLayout;horizontal=1;startSize=26;horizontalStack=0;resizeParent=1;resizeParentMax=0;resizeLast=0;collapsible=1;marginBottom=0;whiteSpace=wrap;html=1;" vertex="1" parent="WIyWlLk6GJQsqaUBKTNV-1">
          <mxGeometry x="-690" y="600" width="290" height="138" as="geometry" />
        </mxCell>
        <mxCell id="v1eoQkwsqzwslgcR9GQ5-10" value="+ Name: string" style="text;strokeColor=none;fillColor=none;align=left;verticalAlign=top;spacingLeft=4;spacingRight=4;overflow=hidden;rotatable=0;points=[[0,0.5],[1,0.5]];portConstraint=eastwest;whiteSpace=wrap;html=1;" vertex="1" parent="v1eoQkwsqzwslgcR9GQ5-9">
          <mxGeometry y="26" width="290" height="26" as="geometry" />
        </mxCell>
        <mxCell id="v1eoQkwsqzwslgcR9GQ5-13" value="+ Price: USD" style="text;strokeColor=none;fillColor=none;align=left;verticalAlign=top;spacingLeft=4;spacingRight=4;overflow=hidden;rotatable=0;points=[[0,0.5],[1,0.5]];portConstraint=eastwest;whiteSpace=wrap;html=1;" vertex="1" parent="v1eoQkwsqzwslgcR9GQ5-9">
          <mxGeometry y="52" width="290" height="26" as="geometry" />
        </mxCell>
        <mxCell id="v1eoQkwsqzwslgcR9GQ5-11" value="" style="line;strokeWidth=1;fillColor=none;align=left;verticalAlign=middle;spacingTop=-1;spacingLeft=3;spacingRight=3;rotatable=0;labelPosition=right;points=[];portConstraint=eastwest;strokeColor=inherit;" vertex="1" parent="v1eoQkwsqzwslgcR9GQ5-9">
          <mxGeometry y="78" width="290" height="8" as="geometry" />
        </mxCell>
        <mxCell id="v1eoQkwsqzwslgcR9GQ5-12" value="+ Discount(discount: USD) : void" style="text;strokeColor=none;fillColor=none;align=left;verticalAlign=top;spacingLeft=4;spacingRight=4;overflow=hidden;rotatable=0;points=[[0,0.5],[1,0.5]];portConstraint=eastwest;whiteSpace=wrap;html=1;" vertex="1" parent="v1eoQkwsqzwslgcR9GQ5-9">
          <mxGeometry y="86" width="290" height="26" as="geometry" />
        </mxCell>
        <mxCell id="v1eoQkwsqzwslgcR9GQ5-15" value="+ &amp;lt;&amp;lt;constructor&amp;gt;&amp;gt; Product(name: string, usd: USD)" style="text;strokeColor=none;fillColor=none;align=left;verticalAlign=top;spacingLeft=4;spacingRight=4;overflow=hidden;rotatable=0;points=[[0,0.5],[1,0.5]];portConstraint=eastwest;whiteSpace=wrap;html=1;" vertex="1" parent="v1eoQkwsqzwslgcR9GQ5-9">
          <mxGeometry y="112" width="290" height="26" as="geometry" />
        </mxCell>
        <mxCell id="v1eoQkwsqzwslgcR9GQ5-16" value="Warehouse" style="swimlane;fontStyle=1;align=center;verticalAlign=top;childLayout=stackLayout;horizontal=1;startSize=26;horizontalStack=0;resizeParent=1;resizeParentMax=0;resizeLast=0;collapsible=1;marginBottom=0;whiteSpace=wrap;html=1;" vertex="1" parent="WIyWlLk6GJQsqaUBKTNV-1">
          <mxGeometry x="-450" y="290" width="300" height="180" as="geometry" />
        </mxCell>
        <mxCell id="v1eoQkwsqzwslgcR9GQ5-17" value="+ Product: Product" style="text;strokeColor=none;fillColor=none;align=left;verticalAlign=top;spacingLeft=4;spacingRight=4;overflow=hidden;rotatable=0;points=[[0,0.5],[1,0.5]];portConstraint=eastwest;whiteSpace=wrap;html=1;" vertex="1" parent="v1eoQkwsqzwslgcR9GQ5-16">
          <mxGeometry y="26" width="300" height="26" as="geometry" />
        </mxCell>
        <mxCell id="v1eoQkwsqzwslgcR9GQ5-20" value="+ Quantity: double" style="text;strokeColor=none;fillColor=none;align=left;verticalAlign=top;spacingLeft=4;spacingRight=4;overflow=hidden;rotatable=0;points=[[0,0.5],[1,0.5]];portConstraint=eastwest;whiteSpace=wrap;html=1;" vertex="1" parent="v1eoQkwsqzwslgcR9GQ5-16">
          <mxGeometry y="52" width="300" height="26" as="geometry" />
        </mxCell>
        <mxCell id="v1eoQkwsqzwslgcR9GQ5-21" value="+ Unit: string" style="text;strokeColor=none;fillColor=none;align=left;verticalAlign=top;spacingLeft=4;spacingRight=4;overflow=hidden;rotatable=0;points=[[0,0.5],[1,0.5]];portConstraint=eastwest;whiteSpace=wrap;html=1;" vertex="1" parent="v1eoQkwsqzwslgcR9GQ5-16">
          <mxGeometry y="78" width="300" height="26" as="geometry" />
        </mxCell>
        <mxCell id="v1eoQkwsqzwslgcR9GQ5-22" value="+ DeliveryDate: DataTime" style="text;strokeColor=none;fillColor=none;align=left;verticalAlign=top;spacingLeft=4;spacingRight=4;overflow=hidden;rotatable=0;points=[[0,0.5],[1,0.5]];portConstraint=eastwest;whiteSpace=wrap;html=1;" vertex="1" parent="v1eoQkwsqzwslgcR9GQ5-16">
          <mxGeometry y="104" width="300" height="26" as="geometry" />
        </mxCell>
        <mxCell id="v1eoQkwsqzwslgcR9GQ5-18" value="" style="line;strokeWidth=1;fillColor=none;align=left;verticalAlign=middle;spacingTop=-1;spacingLeft=3;spacingRight=3;rotatable=0;labelPosition=right;points=[];portConstraint=eastwest;strokeColor=inherit;" vertex="1" parent="v1eoQkwsqzwslgcR9GQ5-16">
          <mxGeometry y="130" width="300" height="8" as="geometry" />
        </mxCell>
        <mxCell id="v1eoQkwsqzwslgcR9GQ5-19" value="+&amp;nbsp; &amp;lt;&amp;lt;constructor&amp;gt;&amp;gt; Warehouse(product: Product, quantity: double, unit: string, deliveryDate: DataTime)" style="text;strokeColor=none;fillColor=none;align=left;verticalAlign=top;spacingLeft=4;spacingRight=4;overflow=hidden;rotatable=0;points=[[0,0.5],[1,0.5]];portConstraint=eastwest;whiteSpace=wrap;html=1;" vertex="1" parent="v1eoQkwsqzwslgcR9GQ5-16">
          <mxGeometry y="138" width="300" height="42" as="geometry" />
        </mxCell>
        <mxCell id="v1eoQkwsqzwslgcR9GQ5-23" value="&lt;p style=&quot;margin:0px;margin-top:4px;text-align:center;&quot;&gt;&lt;i&gt;&amp;lt;&amp;lt;Interface&amp;gt;&amp;gt;&lt;/i&gt;&lt;br&gt;&lt;b&gt;IReporting&lt;/b&gt;&lt;/p&gt;&lt;hr size=&quot;1&quot; style=&quot;border-style:solid;&quot;&gt;&lt;p style=&quot;margin:0px;margin-left:4px;&quot;&gt;+ Print(): void&lt;/p&gt;" style="verticalAlign=top;align=left;overflow=fill;html=1;whiteSpace=wrap;" vertex="1" parent="WIyWlLk6GJQsqaUBKTNV-1">
          <mxGeometry x="320" y="353" width="110" height="70" as="geometry" />
        </mxCell>
        <mxCell id="v1eoQkwsqzwslgcR9GQ5-27" value="RevenueInvoice" style="swimlane;fontStyle=1;align=center;verticalAlign=top;childLayout=stackLayout;horizontal=1;startSize=26;horizontalStack=0;resizeParent=1;resizeParentMax=0;resizeLast=0;collapsible=1;marginBottom=0;whiteSpace=wrap;html=1;" vertex="1" parent="WIyWlLk6GJQsqaUBKTNV-1">
          <mxGeometry x="20" y="315" width="210" height="130" as="geometry" />
        </mxCell>
        <mxCell id="v1eoQkwsqzwslgcR9GQ5-28" value="+ Products: Warehouse[]" style="text;strokeColor=none;fillColor=none;align=left;verticalAlign=top;spacingLeft=4;spacingRight=4;overflow=hidden;rotatable=0;points=[[0,0.5],[1,0.5]];portConstraint=eastwest;whiteSpace=wrap;html=1;" vertex="1" parent="v1eoQkwsqzwslgcR9GQ5-27">
          <mxGeometry y="26" width="210" height="26" as="geometry" />
        </mxCell>
        <mxCell id="v1eoQkwsqzwslgcR9GQ5-29" value="" style="line;strokeWidth=1;fillColor=none;align=left;verticalAlign=middle;spacingTop=-1;spacingLeft=3;spacingRight=3;rotatable=0;labelPosition=right;points=[];portConstraint=eastwest;strokeColor=inherit;" vertex="1" parent="v1eoQkwsqzwslgcR9GQ5-27">
          <mxGeometry y="52" width="210" height="8" as="geometry" />
        </mxCell>
        <mxCell id="v1eoQkwsqzwslgcR9GQ5-30" value="+ Print(): void" style="text;strokeColor=none;fillColor=none;align=left;verticalAlign=top;spacingLeft=4;spacingRight=4;overflow=hidden;rotatable=0;points=[[0,0.5],[1,0.5]];portConstraint=eastwest;whiteSpace=wrap;html=1;" vertex="1" parent="v1eoQkwsqzwslgcR9GQ5-27">
          <mxGeometry y="60" width="210" height="26" as="geometry" />
        </mxCell>
        <mxCell id="v1eoQkwsqzwslgcR9GQ5-31" value="+ &amp;lt;&amp;lt;constructor&amp;gt;&amp;gt;&amp;nbsp;RevenueInvoice( warehouses: Warehouse[])" style="text;strokeColor=none;fillColor=none;align=left;verticalAlign=top;spacingLeft=4;spacingRight=4;overflow=hidden;rotatable=0;points=[[0,0.5],[1,0.5]];portConstraint=eastwest;whiteSpace=wrap;html=1;" vertex="1" parent="v1eoQkwsqzwslgcR9GQ5-27">
          <mxGeometry y="86" width="210" height="44" as="geometry" />
        </mxCell>
        <mxCell id="v1eoQkwsqzwslgcR9GQ5-33" value="SalesInvoice" style="swimlane;fontStyle=1;align=center;verticalAlign=top;childLayout=stackLayout;horizontal=1;startSize=26;horizontalStack=0;resizeParent=1;resizeParentMax=0;resizeLast=0;collapsible=1;marginBottom=0;whiteSpace=wrap;html=1;" vertex="1" parent="WIyWlLk6GJQsqaUBKTNV-1">
          <mxGeometry x="15" y="480" width="220" height="220" as="geometry" />
        </mxCell>
        <mxCell id="v1eoQkwsqzwslgcR9GQ5-34" value="+ Products: Warehouse[]" style="text;strokeColor=none;fillColor=none;align=left;verticalAlign=top;spacingLeft=4;spacingRight=4;overflow=hidden;rotatable=0;points=[[0,0.5],[1,0.5]];portConstraint=eastwest;whiteSpace=wrap;html=1;" vertex="1" parent="v1eoQkwsqzwslgcR9GQ5-33">
          <mxGeometry y="26" width="220" height="26" as="geometry" />
        </mxCell>
        <mxCell id="v1eoQkwsqzwslgcR9GQ5-37" value="+ Post: string" style="text;strokeColor=none;fillColor=none;align=left;verticalAlign=top;spacingLeft=4;spacingRight=4;overflow=hidden;rotatable=0;points=[[0,0.5],[1,0.5]];portConstraint=eastwest;whiteSpace=wrap;html=1;" vertex="1" parent="v1eoQkwsqzwslgcR9GQ5-33">
          <mxGeometry y="52" width="220" height="26" as="geometry" />
        </mxCell>
        <mxCell id="v1eoQkwsqzwslgcR9GQ5-38" value="+ Consumer: string" style="text;strokeColor=none;fillColor=none;align=left;verticalAlign=top;spacingLeft=4;spacingRight=4;overflow=hidden;rotatable=0;points=[[0,0.5],[1,0.5]];portConstraint=eastwest;whiteSpace=wrap;html=1;" vertex="1" parent="v1eoQkwsqzwslgcR9GQ5-33">
          <mxGeometry y="78" width="220" height="26" as="geometry" />
        </mxCell>
        <mxCell id="v1eoQkwsqzwslgcR9GQ5-39" value="+ Contract: string" style="text;strokeColor=none;fillColor=none;align=left;verticalAlign=top;spacingLeft=4;spacingRight=4;overflow=hidden;rotatable=0;points=[[0,0.5],[1,0.5]];portConstraint=eastwest;whiteSpace=wrap;html=1;" vertex="1" parent="v1eoQkwsqzwslgcR9GQ5-33">
          <mxGeometry y="104" width="220" height="26" as="geometry" />
        </mxCell>
        <mxCell id="v1eoQkwsqzwslgcR9GQ5-35" value="" style="line;strokeWidth=1;fillColor=none;align=left;verticalAlign=middle;spacingTop=-1;spacingLeft=3;spacingRight=3;rotatable=0;labelPosition=right;points=[];portConstraint=eastwest;strokeColor=inherit;" vertex="1" parent="v1eoQkwsqzwslgcR9GQ5-33">
          <mxGeometry y="130" width="220" height="8" as="geometry" />
        </mxCell>
        <mxCell id="v1eoQkwsqzwslgcR9GQ5-36" value="+ Print(): void" style="text;strokeColor=none;fillColor=none;align=left;verticalAlign=top;spacingLeft=4;spacingRight=4;overflow=hidden;rotatable=0;points=[[0,0.5],[1,0.5]];portConstraint=eastwest;whiteSpace=wrap;html=1;" vertex="1" parent="v1eoQkwsqzwslgcR9GQ5-33">
          <mxGeometry y="138" width="220" height="26" as="geometry" />
        </mxCell>
        <mxCell id="v1eoQkwsqzwslgcR9GQ5-40" value="&lt;div style=&quot;text-align: center;&quot;&gt;&lt;span style=&quot;background-color: initial;&quot;&gt;+ &amp;lt;&amp;lt;constructor&amp;gt;&amp;gt; SalesInoice( products: Warehouse[], post: string, consumer: string, contract: string)&lt;/span&gt;&lt;/div&gt;" style="text;strokeColor=none;fillColor=none;align=left;verticalAlign=top;spacingLeft=4;spacingRight=4;overflow=hidden;rotatable=0;points=[[0,0.5],[1,0.5]];portConstraint=eastwest;whiteSpace=wrap;html=1;" vertex="1" parent="v1eoQkwsqzwslgcR9GQ5-33">
          <mxGeometry y="164" width="220" height="56" as="geometry" />
        </mxCell>
        <mxCell id="v1eoQkwsqzwslgcR9GQ5-41" value="InventoryReport" style="swimlane;fontStyle=1;align=center;verticalAlign=top;childLayout=stackLayout;horizontal=1;startSize=26;horizontalStack=0;resizeParent=1;resizeParentMax=0;resizeLast=0;collapsible=1;marginBottom=0;whiteSpace=wrap;html=1;" vertex="1" parent="WIyWlLk6GJQsqaUBKTNV-1">
          <mxGeometry x="20" y="140" width="210" height="140" as="geometry" />
        </mxCell>
        <mxCell id="v1eoQkwsqzwslgcR9GQ5-42" value="+ Products: Warehouse[]" style="text;strokeColor=none;fillColor=none;align=left;verticalAlign=top;spacingLeft=4;spacingRight=4;overflow=hidden;rotatable=0;points=[[0,0.5],[1,0.5]];portConstraint=eastwest;whiteSpace=wrap;html=1;" vertex="1" parent="v1eoQkwsqzwslgcR9GQ5-41">
          <mxGeometry y="26" width="210" height="26" as="geometry" />
        </mxCell>
        <mxCell id="v1eoQkwsqzwslgcR9GQ5-43" value="" style="line;strokeWidth=1;fillColor=none;align=left;verticalAlign=middle;spacingTop=-1;spacingLeft=3;spacingRight=3;rotatable=0;labelPosition=right;points=[];portConstraint=eastwest;strokeColor=inherit;" vertex="1" parent="v1eoQkwsqzwslgcR9GQ5-41">
          <mxGeometry y="52" width="210" height="8" as="geometry" />
        </mxCell>
        <mxCell id="v1eoQkwsqzwslgcR9GQ5-44" value="+ Print(): void" style="text;strokeColor=none;fillColor=none;align=left;verticalAlign=top;spacingLeft=4;spacingRight=4;overflow=hidden;rotatable=0;points=[[0,0.5],[1,0.5]];portConstraint=eastwest;whiteSpace=wrap;html=1;" vertex="1" parent="v1eoQkwsqzwslgcR9GQ5-41">
          <mxGeometry y="60" width="210" height="26" as="geometry" />
        </mxCell>
        <mxCell id="v1eoQkwsqzwslgcR9GQ5-46" value="+ &amp;lt;&amp;lt;constructor&amp;gt;&amp;gt;&amp;nbsp;InventoryReport( products: Warehouse[])" style="text;strokeColor=none;fillColor=none;align=left;verticalAlign=top;spacingLeft=4;spacingRight=4;overflow=hidden;rotatable=0;points=[[0,0.5],[1,0.5]];portConstraint=eastwest;whiteSpace=wrap;html=1;" vertex="1" parent="v1eoQkwsqzwslgcR9GQ5-41">
          <mxGeometry y="86" width="210" height="54" as="geometry" />
        </mxCell>
        <mxCell id="v1eoQkwsqzwslgcR9GQ5-58" value="" style="endArrow=block;dashed=1;endFill=0;endSize=12;html=1;rounded=0;entryX=0;entryY=0.75;entryDx=0;entryDy=0;exitX=1;exitY=0.5;exitDx=0;exitDy=0;" edge="1" parent="WIyWlLk6GJQsqaUBKTNV-1" source="v1eoQkwsqzwslgcR9GQ5-39" target="v1eoQkwsqzwslgcR9GQ5-23">
          <mxGeometry width="160" relative="1" as="geometry">
            <mxPoint x="230" y="500" as="sourcePoint" />
            <mxPoint x="305" y="320" as="targetPoint" />
            <Array as="points" />
          </mxGeometry>
        </mxCell>
        <mxCell id="v1eoQkwsqzwslgcR9GQ5-60" value="" style="endArrow=block;dashed=1;endFill=0;endSize=12;html=1;rounded=0;exitX=1;exitY=0.5;exitDx=0;exitDy=0;entryX=0;entryY=0.5;entryDx=0;entryDy=0;" edge="1" parent="WIyWlLk6GJQsqaUBKTNV-1" source="v1eoQkwsqzwslgcR9GQ5-30" target="v1eoQkwsqzwslgcR9GQ5-23">
          <mxGeometry width="160" relative="1" as="geometry">
            <mxPoint x="39" y="330" as="sourcePoint" />
            <mxPoint x="199" y="330" as="targetPoint" />
          </mxGeometry>
        </mxCell>
        <mxCell id="v1eoQkwsqzwslgcR9GQ5-61" value="" style="endArrow=block;dashed=1;endFill=0;endSize=12;html=1;rounded=0;exitX=1;exitY=0.5;exitDx=0;exitDy=0;entryX=0;entryY=0.25;entryDx=0;entryDy=0;" edge="1" parent="WIyWlLk6GJQsqaUBKTNV-1" source="v1eoQkwsqzwslgcR9GQ5-44" target="v1eoQkwsqzwslgcR9GQ5-23">
          <mxGeometry width="160" relative="1" as="geometry">
            <mxPoint x="519" y="270" as="sourcePoint" />
            <mxPoint x="679" y="270" as="targetPoint" />
          </mxGeometry>
        </mxCell>
        <mxCell id="v1eoQkwsqzwslgcR9GQ5-62" value="" style="endArrow=diamondThin;endFill=1;endSize=24;html=1;rounded=0;entryX=0.5;entryY=0;entryDx=0;entryDy=0;" edge="1" parent="WIyWlLk6GJQsqaUBKTNV-1" source="v1eoQkwsqzwslgcR9GQ5-1" target="Z9JFO_q1IMEJjFP0utiJ-38">
          <mxGeometry width="160" relative="1" as="geometry">
            <mxPoint x="-100" y="570" as="sourcePoint" />
            <mxPoint x="230" y="810" as="targetPoint" />
          </mxGeometry>
        </mxCell>
        <mxCell id="v1eoQkwsqzwslgcR9GQ5-67" value="1" style="endArrow=open;html=1;endSize=12;startArrow=diamondThin;startSize=14;startFill=0;edgeStyle=orthogonalEdgeStyle;align=left;verticalAlign=bottom;rounded=0;entryX=0;entryY=0.5;entryDx=0;entryDy=0;" edge="1" parent="WIyWlLk6GJQsqaUBKTNV-1" source="v1eoQkwsqzwslgcR9GQ5-9" target="v1eoQkwsqzwslgcR9GQ5-17">
          <mxGeometry x="-0.8198" relative="1" as="geometry">
            <mxPoint x="-470" y="580" as="sourcePoint" />
            <mxPoint x="-280" y="520" as="targetPoint" />
            <Array as="points">
              <mxPoint x="-550" y="329" />
            </Array>
            <mxPoint y="-1" as="offset" />
          </mxGeometry>
        </mxCell>
        <mxCell id="v1eoQkwsqzwslgcR9GQ5-76" value="Use" style="endArrow=open;endSize=12;dashed=1;html=1;rounded=0;exitX=-0.006;exitY=1.024;exitDx=0;exitDy=0;exitPerimeter=0;entryX=1;entryY=0.5;entryDx=0;entryDy=0;" edge="1" parent="WIyWlLk6GJQsqaUBKTNV-1" source="Z9JFO_q1IMEJjFP0utiJ-44" target="v1eoQkwsqzwslgcR9GQ5-13">
          <mxGeometry width="160" relative="1" as="geometry">
            <mxPoint x="-110" y="540" as="sourcePoint" />
            <mxPoint x="50" y="540" as="targetPoint" />
          </mxGeometry>
        </mxCell>
        <mxCell id="v1eoQkwsqzwslgcR9GQ5-77" value="n" style="endArrow=open;html=1;endSize=12;startArrow=diamondThin;startSize=14;startFill=0;edgeStyle=orthogonalEdgeStyle;align=left;verticalAlign=bottom;rounded=0;" edge="1" parent="WIyWlLk6GJQsqaUBKTNV-1" target="v1eoQkwsqzwslgcR9GQ5-41">
          <mxGeometry x="-1" y="3" relative="1" as="geometry">
            <mxPoint x="-150" y="350" as="sourcePoint" />
            <mxPoint x="-60" y="179" as="targetPoint" />
            <Array as="points">
              <mxPoint x="-60" y="350" />
              <mxPoint x="-60" y="179" />
            </Array>
          </mxGeometry>
        </mxCell>
        <mxCell id="v1eoQkwsqzwslgcR9GQ5-79" value="n" style="endArrow=open;html=1;endSize=12;startArrow=diamondThin;startSize=14;startFill=0;edgeStyle=orthogonalEdgeStyle;align=left;verticalAlign=bottom;rounded=0;" edge="1" parent="WIyWlLk6GJQsqaUBKTNV-1" source="v1eoQkwsqzwslgcR9GQ5-16" target="v1eoQkwsqzwslgcR9GQ5-27">
          <mxGeometry x="-1" y="3" relative="1" as="geometry">
            <mxPoint x="-130" y="392.52" as="sourcePoint" />
            <mxPoint x="30" y="392.52" as="targetPoint" />
            <Array as="points" />
          </mxGeometry>
        </mxCell>
        <mxCell id="v1eoQkwsqzwslgcR9GQ5-80" value="n" style="endArrow=open;html=1;endSize=12;startArrow=diamondThin;startSize=14;startFill=0;edgeStyle=orthogonalEdgeStyle;align=left;verticalAlign=bottom;rounded=0;" edge="1" parent="WIyWlLk6GJQsqaUBKTNV-1" source="v1eoQkwsqzwslgcR9GQ5-16" target="v1eoQkwsqzwslgcR9GQ5-33">
          <mxGeometry x="-1" y="3" relative="1" as="geometry">
            <mxPoint x="-60" y="460" as="sourcePoint" />
            <mxPoint x="-50" y="460" as="targetPoint" />
            <Array as="points">
              <mxPoint x="-60" y="420" />
              <mxPoint x="-60" y="590" />
            </Array>
          </mxGeometry>
        </mxCell>
      </root>
    </mxGraphModel>
  </diagram>
</mxfile>
